<svg width="129" height="94" viewBox="0 0 129 94" fill="none" xmlns="http://www.w3.org/2000/svg">
<path d="M120.027 69.3224H10.5695C9.78206 69.3224 9.25708 69.4235 9.25708 69.5751C9.25708 69.7267 9.78206 69.8277 10.5695 69.8277H119.896C120.683 69.8277 121.208 69.7267 121.208 69.5751C121.208 69.4235 120.683 69.3224 120.027 69.3224Z" fill="black"/>
<path d="M12.7516 48.623H0L0.301457 50.7747V64.0199H2.6415L2.40787 62.2639V50.4921H10.6451V64.0199H12.9852L12.7516 62.2639V48.623Z" fill="black"/>
<path d="M17.5485 64.0199H19.5833L21.1056 59.9955H26.8408L28.3142 64.0199H30.8653L29.6933 61.4463L24.919 48.3179L23.4947 48.6231L17.5485 64.0199ZM23.7961 52.8585L24.0787 51.9203L24.3124 52.8322L26.253 58.2169H21.7387L23.7961 52.8585Z" fill="black"/>
<path d="M35.568 48.623L35.8732 50.7747V64.0199H38.2133L37.9796 62.2639V58.2621H39.1252C42.4939 58.2621 44.9734 55.922 44.9734 53.2542C44.9734 50.0964 42.4939 48.623 39.9203 48.623H35.568ZM37.9796 56.5325V50.3526H39.4982C41.2316 50.3526 42.7502 51.3361 42.7502 53.2542C42.7502 55.2664 41.2316 56.5325 39.4982 56.5325H37.9796Z" fill="black"/>
<path d="M48.4363 50.4016H53.35V64.0199H55.69L55.4564 62.2639V50.4016H60.5133V48.623H48.4363V50.4016Z" fill="black"/>
<path d="M77.994 48.623H75.5823L75.8876 50.7747V55.1269H67.6503V48.623H65.2386L65.5439 50.7747V64.0199H67.8839L67.6503 62.2639V56.9997H75.8876V64.0199H78.2276L77.994 62.2639V48.623Z" fill="black"/>
<path d="M85.4588 64.0199H92.9462L93.4134 62.2865H87.5652V56.9997H91.9853L92.4526 55.2664H87.5652V50.3526H93.1572V48.623H85.1536L85.4588 50.7747V64.0199Z" fill="black"/>
<path d="M99.1449 48.623L99.4501 50.7747V64.0199H101.79L101.557 62.2639V58.2621H102.702C106.075 58.2621 108.554 55.922 108.554 53.2542C108.554 50.0964 106.075 48.623 103.501 48.623H99.1449ZM101.557 56.5325V50.3526H103.079C104.808 50.3526 106.331 51.3361 106.331 53.2542C106.331 55.2664 104.808 56.5325 103.079 56.5325H101.557Z" fill="black"/>
<path d="M116.626 56.3441H117.959C120.348 56.3441 121.588 57.0939 121.588 59.3398C121.588 60.8847 120.838 62.3355 118.336 62.3355H116.626V56.3441ZM116.626 48.623H114.218L114.519 50.7747V64.0199H118.054C122.312 64.0199 123.811 61.7477 123.811 59.3398C123.811 56.9281 122.312 54.6597 118.054 54.6597H116.626V48.623ZM128.281 48.623H125.869L126.174 50.7747V64.0199H128.514L128.281 62.2639V48.623Z" fill="black"/>
<path d="M25.6121 80.1443H26.4335L27.044 78.524H29.3539L29.9455 80.1443H30.9742L30.5032 79.1081L28.5814 73.8251L28.0049 73.9457L25.6121 80.1443ZM28.1292 75.6526L28.2423 75.2758L28.3365 75.6413L29.1165 77.8081H27.3002L28.1292 75.6526Z" fill="black"/>
<path d="M35.8352 74.8124V80.1444H36.7772L36.683 79.4397V74.6616H38.9326V73.9457H35.7108L35.8352 74.8124Z" fill="black"/>
<path d="M43.8426 80.1444H46.8572L47.0456 79.4472H44.6905V77.3182H46.469L46.6575 76.6211H44.6905V74.6428H46.9401V73.9457H43.7183L43.8426 74.8124V80.1444Z" fill="black"/>
<path d="M57.3327 73.9457H56.3605L56.4849 74.8124V76.5646H53.1688V73.9457H52.1967L52.321 74.8124V80.1444H53.2631L53.1688 79.4397V77.3182H56.4849V80.1444H57.4269L57.3327 79.4397V73.9457Z" fill="black"/>
<path d="M62.1748 74.6616H64.1531V80.1444H65.0952L65.0009 79.4397V74.6616H67.0358V73.9457H62.1748V74.6616Z" fill="black"/>
<path d="M76.0607 74.6051C75.503 74.0964 74.8624 73.8326 74.0824 73.8326C72.4244 73.8326 71.0867 75.2457 71.0867 77.1788C71.0867 79.1948 72.4997 80.2687 73.958 80.2687C75.2392 80.2687 76.1436 79.4472 76.1436 79.4472L75.9363 78.7501C75.9363 78.7501 74.9679 79.5415 74.1088 79.5415C73.0537 79.5415 71.991 78.5994 71.991 77.0846C71.991 75.7733 72.8276 74.5298 74.0447 74.5298C74.6665 74.5298 75.1827 74.786 75.6273 75.2457L76.0607 74.6051Z" fill="black"/>
<path d="M80.2922 74.6616H82.2705V80.1444H83.2126L83.1184 79.4397V74.6616H85.1532V73.9457H80.2922V74.6616Z" fill="black"/>
<path d="M90.8695 74.6051C91.0127 74.5976 91.1522 74.5863 91.2765 74.5863C92.1884 74.5863 92.5954 74.899 92.5954 75.5585C92.5954 75.973 92.3957 76.2933 92.2374 76.508C92.2186 76.508 91.9058 76.444 91.5478 76.444H90.8695V74.6051ZM89.9011 73.9457L90.0217 74.8124V80.1443H91.4461C93.1606 80.1443 93.7635 79.2324 93.7635 78.2226C93.7635 77.3295 93.3113 76.9414 92.6971 76.6588C92.9421 76.4138 93.4055 75.8863 93.4055 75.37C93.4055 74.3903 92.5652 73.8628 91.3896 73.9004L89.9011 73.9457ZM90.8695 77.1411H91.4084C92.3693 77.1411 92.8667 77.4501 92.8667 78.3092C92.8667 78.882 92.5652 79.4661 91.5591 79.4661H90.8695V77.1411Z" fill="black"/>
<path d="M101.262 73.8326C99.6495 73.8326 98.4362 75.2834 98.4362 77.1034C98.4362 78.8443 99.4159 80.2687 101.138 80.2687C102.751 80.2687 103.983 78.818 103.983 76.9904C103.983 75.1817 103.079 73.8326 101.262 73.8326ZM99.3594 77.0469C99.3594 75.6414 100.102 74.5034 101.213 74.5034C102.325 74.5034 103.06 75.6414 103.06 77.0469C103.06 78.4487 102.325 79.5904 101.213 79.5904C100.102 79.5904 99.3594 78.4487 99.3594 77.0469Z" fill="black"/>
<path d="M11.4135 86.2941H10.4413L10.5657 87.1608V88.913H7.24966V86.2941H6.27747L6.40182 87.1608V92.4927H7.34386L7.24966 91.7881V89.6666H10.5657V92.4927H11.5077L11.4135 91.7881V86.2941Z" fill="black"/>
<path d="M17.2618 92.4927H20.2764L20.4648 91.7956H18.1097V89.6666H19.892L20.0804 88.9695H18.1097V86.9912H20.363V86.2941H17.1412L17.2618 87.1608V92.4927Z" fill="black"/>
<path d="M24.7793 94H25.6384L25.646 92.4927H29.6704L29.6779 94H30.5371L30.5183 91.7391H29.8098V86.2941H25.9964L26.117 87.1608L26.1095 87.7825C26.1095 89.384 26.004 90.6086 25.3935 91.7391H24.7981L24.7793 94ZM26.9573 87.7825V87.0477H28.962V91.7391H26.3356C26.8518 90.6086 26.9573 89.384 26.9573 87.7825Z" fill="black"/>
<path d="M36.585 86.9535C36.7244 86.946 36.8676 86.9346 36.9882 86.9346C37.9039 86.9346 38.3071 87.2474 38.3071 87.9068C38.3071 88.3213 38.1111 88.6416 37.9491 88.8564C37.9302 88.8564 37.6212 88.7924 37.2633 88.7924H36.585V86.9535ZM35.6128 86.2941L35.7371 87.1607V92.4927H37.1578C38.8723 92.4927 39.4752 91.5808 39.4752 90.571C39.4752 89.6779 39.023 89.2898 38.4126 89.0072C38.6575 88.7622 39.1172 88.2347 39.1172 87.7184C39.1172 86.7387 38.2807 86.2112 37.1012 86.2488L35.6128 86.2941ZM36.585 89.4895H37.1201C38.081 89.4895 38.5821 89.7985 38.5821 90.6576C38.5821 91.2304 38.2807 91.8145 37.2708 91.8145H36.585V89.4895Z" fill="black"/>
<path d="M48.9334 87.5677V92.4927H49.8754L49.7812 91.7881V86.2941H48.9635L45.8736 90.7405L45.6174 91.2229V86.2941H44.6489L44.7695 87.1608V92.4927H45.591L48.6809 88.0463L48.9334 87.5677Z" fill="black"/>
<path d="M58.0147 88.9431H57.4608L56.6506 87.2851C56.2173 86.3996 55.7086 86.181 55.2752 86.181C55.1132 86.181 54.9738 86.2112 54.8984 86.2376L54.8117 87.0213C54.8871 87.0025 55.0114 86.9912 55.1245 86.9912C55.3506 86.9912 55.6332 87.1608 55.8857 87.6695L56.6958 89.2898L54.7175 92.4928H55.7651L57.4495 89.6968H58.0147V92.4928H58.9567L58.8625 91.7881V89.6968H59.4278L61.1159 92.4928H62.1597L60.1814 89.2898L60.9916 87.6695C61.2478 87.1608 61.5304 86.9912 61.7565 86.9912C61.8696 86.9912 61.9901 87.0025 62.0655 87.0213L61.9826 86.2376C61.9072 86.2112 61.764 86.181 61.6058 86.181C61.1724 86.181 60.6637 86.3996 60.2304 87.2851L59.4202 88.9431H58.8625V86.2941H57.8941L58.0147 87.1608V88.9431Z" fill="black"/>
<path d="M71.2902 87.5677V92.4927H72.2322L72.138 91.7881V86.2941H71.3165L68.2266 90.7405L67.9741 91.2229V86.2941H67.002L67.1263 87.1608V92.4927H67.944L71.0339 88.0463L71.2902 87.5677Z" fill="black"/>
<path d="M81.2569 91.7956L83.1862 88.7924L83.5178 88.1329V92.4927H84.4598L84.3656 91.7881V86.2941H83.8381L81.2945 90.2997L78.4872 86.2941H77.8655L77.9861 87.1608V92.4927H78.8527L78.7585 91.7881V88.1706L79.0713 88.7924L81.2569 91.7956Z" fill="black"/>
<path d="M92.3806 86.181C90.7716 86.181 89.5544 87.6318 89.5544 89.4518C89.5544 91.1927 90.5342 92.6171 92.26 92.6171C93.869 92.6171 95.105 91.1663 95.105 89.3388C95.105 87.53 94.2006 86.181 92.3806 86.181ZM90.4776 89.3953C90.4776 87.9898 91.2238 86.8518 92.3354 86.8518C93.447 86.8518 94.1818 87.9898 94.1818 89.3953C94.1818 90.7971 93.447 91.9388 92.3354 91.9388C91.2238 91.9388 90.4776 90.7971 90.4776 89.3953Z" fill="black"/>
<path d="M104.695 86.9535C104.137 86.4448 103.497 86.181 102.717 86.181C101.059 86.181 99.7211 87.5941 99.7211 89.5272C99.7211 91.5432 101.134 92.6171 102.592 92.6171C103.874 92.6171 104.778 91.7956 104.778 91.7956L104.571 91.0985C104.571 91.0985 103.602 91.8898 102.743 91.8898C101.688 91.8898 100.625 90.9478 100.625 89.433C100.625 88.1216 101.462 86.8781 102.679 86.8781C103.301 86.8781 103.817 87.1344 104.262 87.5941L104.695 86.9535Z" fill="black"/>
<path d="M108.923 87.01H110.901V92.4927H111.843L111.749 91.7881V87.01H113.784V86.2941H108.923V87.01Z" fill="black"/>
<path d="M122.82 87.5677V92.4927H123.762L123.668 91.7881V86.2941H122.847L119.757 90.7405L119.504 91.2229V86.2941H118.532L118.656 87.1608V92.4927H119.474L122.564 88.0463L122.82 87.5677Z" fill="black"/>
<path d="M48.1665 16.1675L53.6286 13.6349V12.4028L48.1665 14.9354V16.1675Z" fill="#002F2F"/>
<path d="M48.1665 18.1113L53.6286 15.5924V14.3604L48.1665 16.9066V18.1113Z" fill="#002F2F"/>
<path d="M48.1665 20.0826L53.6286 17.55V16.3317L48.1665 18.8505V20.0826Z" fill="#002F2F"/>
<path d="M43.8269 24.0252L53.6286 19.5077V18.2893L43.8269 22.8069V24.0252Z" fill="#002F2F"/>
<path d="M43.8269 25.9965L53.6286 21.4789V20.2468L43.8269 24.7644V25.9965Z" fill="#002F2F"/>
<path d="M43.8269 27.9404L53.6286 23.4092V22.2045L43.8269 26.722V27.9404Z" fill="#002F2F"/>
<path d="M43.8269 29.9528L53.6286 25.3805V24.1484L43.8269 28.6797V29.9528Z" fill="#002F2F"/>
<path d="M43.8269 32.239H53.6286V26.1061L43.8269 30.6784V32.239Z" fill="#002F2F"/>
<path d="M55.8463 5.4895L54.5048 6.13291V32.239H55.8463V5.4895Z" fill="#002F2F"/>
<path d="M57.7902 32.239V4.53125L56.4486 5.18835V32.239H57.7902Z" fill="#002F2F"/>
<path d="M59.7478 32.239V3.60034L58.4199 4.25744V32.239H59.7478Z" fill="#002F2F"/>
<path d="M61.7191 32.239V2.71057L60.3776 3.29922V32.239H61.7191Z" fill="#002F2F"/>
<path d="M63.6631 32.239V1.73865L62.3079 2.38206V32.239H63.6631Z" fill="#002F2F"/>
<path d="M65.6344 32.239V0.835083L64.2928 1.4648V32.239H65.6344Z" fill="#002F2F"/>
<path d="M82.9928 17.2215L77.6676 10.7189V6.73528L67.5784 0H67.3046L66.2642 0.520204V32.239H67.5784H68.6872V19.9184L72.0138 17.8786L72.0412 32.239H74.3136V12.7313L77.6676 10.7189V32.239H83.2256L82.9928 31.4176V24.08V17.2215Z" fill="#002F2F"/>
</svg>
